<?xml version="1.0" encoding="utf-8"?>
<!-- Generator: Adobe Illustrator 16.0.0, SVG Export Plug-In . SVG Version: 6.00 Build 0)  -->
<!DOCTYPE svg PUBLIC "-//W3C//DTD SVG 1.1//EN" "http://www.w3.org/Graphics/SVG/1.1/DTD/svg11.dtd">
<svg version="1.1" id="Layer_1" xmlns="http://www.w3.org/2000/svg" xmlns:xlink="http://www.w3.org/1999/xlink" x="0px" y="0px"
	 width="22.999px" height="46px" viewBox="0 0 22.999 46" enable-background="new 0 0 22.999 46" xml:space="preserve">
<path fill="#DDB072" d="M11.29,22.971l0.18,0.016l0.016-0.007L11.499,23v-0.041l-0.087-0.031L11.29,22.971z M1.151,18.231v-1.247
	L11.499,20.7v1.196L1.151,18.231z M12.534,20.335l9.314-3.354v1.25l-9.314,3.355V20.335z M12.534,11.769V1.479l9.314,3.799v10.132
	L12.534,11.769z M1.151,5.275l10.348-4.219v10.388L1.151,15.409V5.275z M11.499,0v0.039L0.116,4.604v11.191L0,15.837l0.116,0.043
	v2.655v0.402l11.296,3.99l11.471-3.989v-0.403v-2.242V15.88l0.116-0.043l-0.116-0.042V4.602L11.499,0z"/>
<path fill="#FFFFFF" d="M11.29,45.971l0.18,0.016l0.016-0.008L11.499,46v-0.041l-0.087-0.031L11.29,45.971z M1.151,41.23v-1.246
	l10.348,3.715v1.197L1.151,41.23z M12.534,43.334l9.314-3.354v1.25l-9.314,3.355V43.334z M12.534,34.768v-10.29l9.314,3.799v10.131
	L12.534,34.768z M1.151,28.275l10.348-4.219v10.387L1.151,38.408V28.275z M11.499,23v0.039L0.116,27.603v11.192L0,38.836
	l0.116,0.043v2.656v0.402l11.296,3.99l11.471-3.99v-0.402v-2.242v-0.414l0.116-0.043l-0.116-0.041V27.601L11.499,23z"/>
</svg>
