<?xml version="1.0" encoding="utf-8"?>
<!-- Generator: Adobe Illustrator 16.0.0, SVG Export Plug-In . SVG Version: 6.00 Build 0)  -->
<!DOCTYPE svg PUBLIC "-//W3C//DTD SVG 1.1//EN" "http://www.w3.org/Graphics/SVG/1.1/DTD/svg11.dtd">
<svg version="1.1" id="Layer_1" xmlns="http://www.w3.org/2000/svg" xmlns:xlink="http://www.w3.org/1999/xlink" x="0px" y="0px"
	 width="70px" height="70px" viewBox="0 0 70 70" enable-background="new 0 0 70 70" xml:space="preserve">
<g>
	<defs>
		<rect id="SVGID_9_" width="70" height="70"/>
	</defs>
	<clipPath id="SVGID_2_">
		<use xlink:href="#SVGID_9_"  overflow="visible"/>
	</clipPath>
	<path clip-path="url(#SVGID_2_)" fill="#FFFFFF" d="M32.189,40.189c2.782-1.794,5.321-3.433,8.008-5.166
		c-2.743-1.771-5.302-3.426-8.008-5.173V40.189z M34.406,45.12c-3.37,0-6.74,0.002-10.11-0.001
		c-1.538-0.001-2.501-0.852-3.059-2.189c-0.281-0.676-0.495-1.399-0.608-2.123c-0.625-4.001-0.633-8.015,0.084-11.999
		c0.54-3,1.672-3.938,4.712-3.96c6.419-0.045,12.839-0.049,19.258,0.007c2.807,0.023,3.846,0.834,4.439,3.582
		c0.977,4.524,0.952,9.086-0.104,13.602c-0.504,2.154-1.477,3.021-3.672,3.089c-3.643,0.113-7.293,0.031-10.94,0.031V45.12z"/>
</g>
</svg>
