<?xml version="1.0" encoding="utf-8"?>
<!-- Generator: Adobe Illustrator 16.0.0, SVG Export Plug-In . SVG Version: 6.00 Build 0)  -->
<!DOCTYPE svg PUBLIC "-//W3C//DTD SVG 1.1//EN" "http://www.w3.org/Graphics/SVG/1.1/DTD/svg11.dtd">
<svg version="1.1" id="Layer_1" xmlns="http://www.w3.org/2000/svg" xmlns:xlink="http://www.w3.org/1999/xlink" x="0px" y="0px"
	 width="70px" height="70px" viewBox="0 0 70 70" enable-background="new 0 0 70 70" xml:space="preserve">
<g>
	<defs>
		<rect id="SVGID_11_" width="70" height="70"/>
	</defs>
	<clipPath id="SVGID_2_">
		<use xlink:href="#SVGID_11_"  overflow="visible"/>
	</clipPath>
	<path clip-path="url(#SVGID_2_)" fill="#FFFFFF" d="M47.359,28.87c0.024,1.16-0.343,2.385-0.853,3.576
		c-0.776,1.81-1.832,3.456-2.972,5.051c-1.127,1.577-2.314,3.108-3.646,4.521c-1.107,1.173-2.291,2.259-3.727,3.029
		c-0.688,0.37-1.413,0.622-2.203,0.676c-0.729,0.049-1.341-0.208-1.879-0.676c-0.5-0.434-0.861-0.975-1.186-1.545
		c-0.535-0.938-0.874-1.951-1.141-2.995c-0.305-1.182-0.629-2.357-0.954-3.533c-0.325-1.178-0.614-2.363-0.987-3.525
		c-0.261-0.812-0.55-1.615-1.031-2.33c-0.145-0.216-0.317-0.409-0.529-0.562c-0.271-0.196-0.551-0.25-0.866-0.069
		c-0.488,0.279-0.956,0.588-1.414,0.913c-0.148,0.104-0.237,0.1-0.347-0.049c-0.281-0.379-0.577-0.746-0.865-1.12
		c-0.169-0.219-0.164-0.218,0.041-0.4c0.82-0.729,1.643-1.457,2.459-2.19c0.72-0.648,1.434-1.304,2.217-1.878
		c0.562-0.413,1.137-0.81,1.798-1.055c1.216-0.452,2.492-0.024,3.21,1.063c0.456,0.691,0.712,1.463,0.855,2.268
		c0.229,1.297,0.425,2.601,0.648,3.898c0.238,1.375,0.496,2.746,0.921,4.078c0.171,0.535,0.358,1.065,0.694,1.527
		c0.038,0.053,0.077,0.104,0.122,0.15c0.327,0.342,0.632,0.367,1.012,0.089c0.46-0.337,0.812-0.776,1.14-1.234
		c0.733-1.024,1.398-2.093,1.914-3.249c0.24-0.539,0.418-1.097,0.457-1.692c0.02-0.292,0-0.581-0.071-0.865
		c-0.158-0.633-0.666-1.008-1.418-1.039c-0.608-0.024-1.195,0.084-1.766,0.293c-0.059,0.022-0.119,0.075-0.18,0.022
		c-0.07-0.062-0.018-0.13,0.004-0.196c0.267-0.791,0.581-1.561,1.008-2.281c0.789-1.328,1.84-2.36,3.321-2.886
		c1.041-0.369,2.114-0.464,3.209-0.315c0.627,0.085,1.201,0.297,1.694,0.702c0.62,0.514,0.939,1.2,1.126,1.964
		C47.312,27.567,47.355,28.14,47.359,28.87"/>
</g>
</svg>
