<?xml version="1.0" encoding="utf-8"?>
<!-- Generator: Adobe Illustrator 16.0.0, SVG Export Plug-In . SVG Version: 6.00 Build 0)  -->
<!DOCTYPE svg PUBLIC "-//W3C//DTD SVG 1.1//EN" "http://www.w3.org/Graphics/SVG/1.1/DTD/svg11.dtd">
<svg version="1.1" id="Layer_1" xmlns="http://www.w3.org/2000/svg" xmlns:xlink="http://www.w3.org/1999/xlink" x="0px" y="0px"
	 width="23px" height="46px" viewBox="0 0 23 46" enable-background="new 0 0 23 46" xml:space="preserve">
<path fill="#53D39C" d="M11.948,23h0.106l-0.052-0.027L11.948,23z M13.049,14.346V11.5V9.48l8.956-3.674v9.472l-8.956,3.57V14.346z
	 M13.049,1.477l8.785,3.525l-8.785,3.406V1.477z M1.108,5.132l10.946-4.03v7.693v2.649L1.108,15.411V5.132z M12.054,0v0.029
	L0.113,4.446v11.349L0,15.838l0.113,0.043v0.062v2.996l11.941,4.006V23v-0.056L23,18.938V4.349l-0.061,0.124L12.054,0z"/>
<path fill="#FFFFFF" d="M11.948,46h0.106l-0.052-0.027L11.948,46z M13.049,37.346V34.5v-2.02l8.956-3.674v9.471l-8.956,3.57V37.346z
	 M13.049,24.476l8.785,3.525l-8.785,3.407V24.476z M1.108,28.131l10.946-4.03v7.694v2.648L1.108,38.41V28.131z M12.054,23v0.029
	L0.113,27.446v11.349L0,38.838l0.113,0.043v0.061v2.996l11.941,4.006V46v-0.057L23,41.938V27.348l-0.061,0.124L12.054,23z"/>
</svg>
