<?xml version="1.0" encoding="utf-8"?>
<!-- Generator: Adobe Illustrator 16.0.0, SVG Export Plug-In . SVG Version: 6.00 Build 0)  -->
<!DOCTYPE svg PUBLIC "-//W3C//DTD SVG 1.1//EN" "http://www.w3.org/Graphics/SVG/1.1/DTD/svg11.dtd">
<svg version="1.1" id="Layer_1" xmlns="http://www.w3.org/2000/svg" xmlns:xlink="http://www.w3.org/1999/xlink" x="0px" y="0px"
	 width="23.001px" height="46px" viewBox="0 0 23.001 46" enable-background="new 0 0 23.001 46" xml:space="preserve">
<path fill="#EC9483" d="M12.054,19.963V9.479l9.951-3.673v10.438v1.624l-9.951,3.674V19.963z M1.107,7.504V5.132l9.952-3.674v9.689
	L1.107,7.504z M12.054,1.078l9.632,3.921l-9.632,3.734V1.078z M12.054,0l-0.096,0.035l-0.034-0.014l0.02,0.02L0.113,4.445v11.35
	L0,15.838l0.113,0.043v0.06v2.71v0.288l10.946,4.006v0.055L11.296,23l0.135-0.007l0.303-0.021L12.054,23v-0.056l10.947-4.037v-0.354
	v-0.019V4.604V4.349L22.68,4.473L12.054,0.074V0z"/>
<path fill="#FFFFFF" d="M12.054,42.963V32.479l9.951-3.672v10.438v1.623l-9.951,3.674V42.963z M1.107,30.503v-2.372l9.952-3.674
	v9.689L1.107,30.503z M12.054,24.078l9.632,3.921l-9.632,3.734V24.078z M12.054,23l-0.096,0.035l-0.034-0.014l0.02,0.02
	L0.113,27.445v11.35L0,38.838l0.113,0.043v0.059v2.711v0.287l10.946,4.006v0.055L11.296,46l0.135-0.008l0.303-0.02L12.054,46v-0.057
	l10.947-4.037v-0.354v-0.018V27.603v-0.255l-0.321,0.124l-10.626-4.398V23z"/>
</svg>
