<?xml version="1.0" encoding="utf-8"?>
<!-- Generator: Adobe Illustrator 16.0.0, SVG Export Plug-In . SVG Version: 6.00 Build 0)  -->
<!DOCTYPE svg PUBLIC "-//W3C//DTD SVG 1.1//EN" "http://www.w3.org/Graphics/SVG/1.1/DTD/svg11.dtd">
<svg version="1.1" id="Layer_1" xmlns="http://www.w3.org/2000/svg" xmlns:xlink="http://www.w3.org/1999/xlink" x="0px" y="0px"
	 width="93px" height="20px" viewBox="0 0 93 20" enable-background="new 0 0 93 20" xml:space="preserve">
<g>
	<path fill="#FFFFFF" d="M84.124,15.353l-0.585-1.179c-0.184-0.397-0.387-0.782-0.689-1.112l-0.825-1.027
		c-0.33-0.291-0.682-0.559-1.022-0.834c-0.176-0.131-0.335-0.283-0.523-0.395l-0.59-0.287c-0.399-0.174-0.77-0.423-1.187-0.539
		c-0.842-0.203-1.672-0.48-2.537-0.446c-0.429,0.001-0.855-0.077-1.284-0.007L73.6,9.714c-0.873,0.093-1.576,0.463-2.376,0.671
		c-0.757,0.27-1.414,0.585-2.085,0.944c-0.048-0.117-0.113-0.23-0.153-0.35c-0.121-0.396-0.176-0.521-0.207-0.998
		c-0.004-0.393-0.093-0.973-0.285-1.436c-0.108-0.246-0.21-0.514-0.562-0.829C67.778,7.575,67.4,7.372,67.023,7.45
		c-0.357,0.051-0.6,0.262-0.712,0.383c-0.448,0.514-0.552,0.898-0.699,1.295l-1.086,1.732c-0.344,0.616-0.796,1.136-1.189,1.708
		c-0.385,0.587-0.875,1.05-1.317,1.57c-0.215,0.272-0.481,0.464-0.729,0.687c-0.258,0.201-0.482,0.475-0.767,0.618l-0.818,0.504
		l-0.869,0.344c-0.292,0.043-0.547,0.122-0.867,0.162l-0.536,0.013l-0.268,0.006L57,16.454c-0.571-0.049-1.075-0.29-1.416-0.66
		c-0.169-0.176-0.422-0.322-0.565-0.557c-0.176-0.23-0.086-0.478,0.019-0.49c0.2-0.08,0.413-0.141,0.631-0.209
		c0.225-0.068,0.413-0.203,0.629-0.312c0.224-0.104,0.386-0.278,0.555-0.446c0.184-0.162,0.307-0.366,0.43-0.572
		c0.14-0.196,0.234-0.418,0.306-0.65c0.096-0.223,0.14-0.465,0.162-0.718c0.045-0.239,0.034-0.507,0-0.778
		c0.005-0.252-0.163-0.568-0.273-0.834c-0.012-0.027-0.029-0.055-0.051-0.079l-0.008-0.007c-0.404-0.43-0.816-0.883-1.473-1.18
		c-0.32-0.145-0.745-0.224-1.143-0.126c-0.398,0.089-0.702,0.317-0.934,0.548c-0.462,0.471-0.701,0.994-0.937,1.502
		c-0.246,0.506-0.43,1.021-0.609,1.537c-0.248,0.678-0.479,1.344-0.723,2c0.069-0.522,0.134-1.046,0.223-1.562
		c0.069-0.484,0.157-0.959,0.239-1.436c0.222-0.381,0.448-0.76,0.665-1.143c0.724-1.307,1.453-2.605,2.135-3.936
		c0.34-0.667,0.69-1.325,1.06-1.996c0.17-0.346,0.368-0.678,0.517-1.067c0.076-0.198,0.15-0.388,0.189-0.653
		c0.028-0.111,0.033-0.278,0.014-0.458c0.006-0.067-0.05-0.224-0.105-0.34c-0.044-0.116-0.146-0.244-0.302-0.354
		c-1.061-0.636-2.211-0.44-3.077,0.091c-0.857,0.521-1.475,1.25-1.908,1.973c-0.91,1.473-1.244,3.046-1.51,4.577
		c-0.226,1.633-0.263,3.252-0.227,4.858c-0.082,0.104-0.161,0.213-0.242,0.317c-0.438,0.553-0.951,1.154-1.36,1.557l-0.206,0.178
		c0-0.014-0.085,0.045-0.122,0.066c-0.1,0.073-0.16,0.064-0.193,0.072c-0.028,0.004-0.105-0.018-0.276-0.226
		c-0.619-0.946-0.977-2.483-1.457-3.894c-0.098-0.234-0.152-0.434-0.341-0.697c-0.127-0.229-0.534-0.598-1.037-0.6
		c-0.514,0.008-0.751,0.227-0.962,0.379c-0.198,0.17-0.35,0.339-0.478,0.506c-0.512,0.676-0.793,1.375-1.121,2.059
		c-0.32,0.678-0.583,1.4-1.024,1.957c-0.044,0.008-0.077,0.025-0.118,0.036c-0.059-0.58-0.051-1.339-0.119-2.04l-0.057-0.555
		l-0.146-0.685c-0.07-0.257-0.173-0.524-0.344-0.833c-0.121-0.186-0.259-0.367-0.406-0.531c-0.26-0.221-0.589-0.439-0.952-0.508
		c-0.907-0.141-1.396,0.353-1.521,0.673c-0.174,0.351-0.129,0.687-0.156,0.946c0.015,0.536-0.29,0.771-0.43,1.141
		c-0.328,0.689-0.63,1.373-0.924,2.064c-0.301,0.698-0.568,1.391-0.912,1.997c-0.164,0.295-0.381,0.606-0.538,0.694
		c-0.101,0.062-0.042,0.012-0.054,0.003c0-0.005-0.092-0.084-0.178-0.157c-0.283-0.287-0.413-0.482-0.688-0.808
		c-0.262-0.263-0.575-0.759-1.38-0.849c-0.178,0.006-0.37,0.023-0.533,0.068c-0.144,0.062-0.288,0.133-0.425,0.211
		c-0.295,0.169-0.326,0.252-0.502,0.383c-0.344,0.29-0.533,0.474-0.806,0.662c-0.245,0.187-0.519,0.312-0.648,0.324
		c-0.114-0.009-0.048,0.054-0.173-0.12c-0.185-0.374-0.207-1.091-0.114-1.69c0.205-0.662,0.417-1.322,0.68-1.941
		c0.061-0.163,0.147-0.301,0.219-0.452c0.079-0.142,0.139-0.313,0.232-0.431l0.256-0.385l0.276-0.289
		c0.09-0.031,0.176-0.139,0.247-0.139c0.067-0.031,0.134-0.035,0.201-0.024c0.074,0.015,0.16,0.032,0.263,0.096
		c0.101,0.053,0.209,0.126,0.319,0.228c0.448,0.377,0.846,0.963,1.279,1.561l0.007,0.01c0.203,0.305,0.604,0.416,0.938,0.246
		c0.358-0.184,0.501-0.622,0.318-0.981l-0.021-0.041c-0.274-0.539-0.57-1.074-0.935-1.6c-0.219-0.261-0.378-0.526-0.674-0.778
		c-0.259-0.244-0.607-0.523-1.111-0.631c-0.512-0.146-1.062,0.059-1.416,0.264c-0.351,0.223-0.609,0.471-0.833,0.713
		c-0.439,0.484-0.793,0.966-1.142,1.432c-0.357,0.471-0.671,0.912-1.024,1.356l-0.541,0.655l-0.562,0.636
		c-0.244,0.267-0.495,0.524-0.748,0.771c0.125-0.284,0.256-0.564,0.34-0.871c0.248-0.719,0.468-1.451,0.548-2.246
		c0.039-0.396,0.038-0.816-0.092-1.271c-0.083-0.457-0.666-0.994-1.183-0.979c-1.033-0.022-1.745,0.609-2.293,1.141
		c-1.101,1.137-1.909,2.408-2.74,3.629c-0.402,0.614-0.805,1.225-1.23,1.777c-0.216,0.26-0.434,0.543-0.657,0.727
		c-0.05,0.045-0.12,0.119-0.154,0.139c-0.028,0.01-0.047,0.023-0.063,0.049c0.028,0.049-0.127,0.072-0.27,0.103l-0.003-0.012
		l-0.011,0.504l-0.022,0.462H16.92c-0.041,0-0.021-0.491-0.043-0.483c-0.019-0.014-0.047-0.218-0.083-0.308
		c-0.071-0.143-0.116-0.556-0.111-0.847c0.122-0.107,0.253-0.278,0.37-0.385c1.154-1.097,2.122-2.343,2.986-3.61
		c0.86-1.271,1.621-2.612,2.265-4.006c0.321-0.695,0.615-1.417,0.854-2.168c0.116-0.377,0.226-0.762,0.299-1.174
		c0.061-0.408,0.166-0.836,0.022-1.381c-0.171-0.287-0.447-0.415-0.791-0.687l-0.125-0.061c-0.053-0.021-0.189-0.034-0.289-0.031
		c-0.252,0.008-0.295,0.08-0.433,0.128c-0.411,0.234-0.679,0.523-0.94,0.813c-0.515,0.585-0.937,1.21-1.341,1.847
		c-0.801,1.273-1.54,2.578-2.189,3.934c-0.65,1.354-1.242,2.738-1.683,4.213c-0.047,0.174-0.082,0.353-0.125,0.527
		c-1.032,0.848-2.186,1.549-3.221,1.602c-0.055,0.006-0.08-0.002-0.112-0.006c-0.009-0.035-0.023-0.087-0.028-0.184
		c-0.026-0.438,0.101-1.109,0.289-1.746c0.349-1.195,0.865-2.418,1.414-3.625l3.099-0.398c0.192-0.025,0.333-0.197,0.317-0.393
		c-0.016-0.201-0.193-0.35-0.395-0.334l-2.593,0.214c1.134-2.427,2.403-4.825,3.693-7.232l0.003-0.01L18.142,2.4
		c0.25-0.708-0.087-1.501-0.788-1.805c-0.732-0.319-1.584-0.039-1.903,0.693c-0.003,0.006-0.006-0.037-0.008-0.037h-0.001
		l-0.006,0.063c-0.843,1.664-1.675,3.374-2.485,5.078c-0.285,0.491-0.565,0.999-0.873,1.478c-0.448,0.693-0.931,1.367-1.397,2.051
		c-0.08,0.12-0.169,0.236-0.253,0.354L0.921,11.06c-0.01,0-0.023,0.003-0.034,0.004c-0.4,0.052-0.683,0.418-0.632,0.818
		c0.052,0.4,0.418,0.684,0.818,0.633l8.508-1.094c-0.127,0.166-0.254,0.331-0.378,0.499c-0.485,0.671-1.025,1.299-1.559,1.931
		c-1.046,1.288-2.193,2.48-3.364,3.649c-0.14,0.14-0.147,0.372-0.009,0.517c0.14,0.146,0.371,0.148,0.517,0.009
		c0.598-0.573,1.203-1.171,1.776-1.774c0.58-0.604,1.177-1.189,1.742-1.808c0.581-0.603,1.143-1.223,1.705-1.845
		c0.194-0.218,0.394-0.432,0.593-0.647c-0.211,0.616-0.416,1.236-0.581,1.892c-0.183,0.791-0.364,1.594-0.273,2.638
		c0.063,0.507,0.223,1.222,0.868,1.788c0.676,0.552,1.397,0.582,1.945,0.523c1.112-0.135,2.029-0.564,2.84-1.092
		c0.03,0.113,0.04,0.22,0.091,0.341c0.099,0.253,0.321,0.547,0.607,0.729c0.147,0.077,0.314,0.183,0.463,0.201l0.229,0.039
		l0.115,0.014l0.058,0.006l0.029,0.003c-0.022,0.006,0.306-0.03,0.174-0.017c0.202-0.061,0.303-0.029,0.63-0.215
		c0.14-0.076,0.277-0.16,0.405-0.248c0.117-0.088,0.169-0.154,0.256-0.234c0.335-0.304,0.561-0.621,0.809-0.936
		c0.462-0.632,0.855-1.271,1.249-1.904c0.765-1.268,1.474-2.563,2.376-3.615c0.443-0.516,0.987-0.941,1.472-0.949
		c0.233,0.023,0.297,0.074,0.415,0.328c0.092,0.25,0.11,0.586,0.083,0.924c-0.049,0.682-0.235,1.386-0.453,2.069
		c-0.271,0.659-0.355,1.435-1.034,1.899l0.038-0.066c-0.076,0.082-0.159,0.125-0.225,0.254c-0.059,0.121-0.17,0.207-0.13,0.617
		c0.027,0.12,0.036,0.199,0.126,0.328c0.091,0.132,0.238,0.248,0.375,0.306c0.145,0.06,0.426,0.069,0.482,0.046
		c0.197-0.034,0.321-0.088,0.412-0.133c0.383-0.189,0.622-0.384,0.879-0.586c0.493-0.4,0.92-0.822,1.342-1.252l0.413-0.44
		c-0.068,0.7-0.068,1.403,0.29,2.223c0.133,0.243,0.318,0.513,0.628,0.7c0.296,0.195,0.702,0.266,0.983,0.219
		c0.608-0.071,1.006-0.322,1.359-0.561c0.348-0.221,0.685-0.564,0.907-0.75c0.118-0.091,0.327-0.311,0.371-0.297
		c0.027-0.006,0.048-0.018,0.069-0.043c0.015,0.005,0.011,0.018,0.016-0.001c-0.012-0.156,0.715,0.642,1.292,1.104
		c0.213,0.144,0.409,0.312,0.78,0.38c0.149,0.06,0.372-0.002,0.554-0.049c0.211-0.044,0.267-0.166,0.398-0.256
		c0.399-0.398,0.518-0.774,0.667-1.143c0.276-0.741,0.448-1.469,0.699-2.145c0.254-0.684,0.551-1.358,0.933-1.971
		c0.122-0.159,0.21-0.352,0.344-0.502c0.013,0.037,0.032,0.082,0.054,0.133l0.271,0.932c0.229,0.736,0.497,1.428,0.916,2.246
		c0.049,0.097,0.111,0.208,0.19,0.33c0.061,0.103,0.156,0.241,0.292,0.39c0.048,0.06,0.127,0.142,0.263,0.235
		c0.134,0.083,0.21,0.156,0.419,0.203c0.411,0.108,0.694-0.014,0.936-0.141c0.605-0.491,0.73-0.828,0.662-1.359
		c0.336-0.705,0.747-1.304,1.179-1.902c0.425-0.592,0.896-1.176,1.341-1.634c0.072-0.096,0.168-0.171,0.251-0.229
		c0.023,0.061,0.048,0.129,0.071,0.185c0.471,1.376,0.605,2.858,1.673,4.385c0.277,0.363,0.863,0.852,1.594,0.784
		c0.324-0.025,0.642-0.147,0.841-0.285c0.12-0.078,0.19-0.119,0.345-0.234l0.211-0.19c0.275-0.274,0.499-0.537,0.705-0.798
		c0.036,0.684,0.075,1.367,0.112,2.048l0.011-0.123c-0.016,0.194-0.029,0.368,0.008,0.614c0.03,0.128,0.024,0.276,0.231,0.568
		c0.132,0.19,0.544,0.371,0.755,0.297c0.115-0.014,0.289-0.084,0.319-0.111l0.124-0.095c0.278-0.263,0.3-0.392,0.39-0.548
		c0.075-0.152,0.124-0.285,0.181-0.429c0.204-0.546,0.331-1.077,0.46-1.612c0.248-1.064,0.47-2.12,0.83-3.102
		c0.195-0.488,0.394-0.977,0.638-1.426c0.245-0.443,0.548-0.87,0.881-1.129c0.167-0.126,0.33-0.193,0.464-0.193
		c0.131-0.002,0.258,0.039,0.411,0.141c0.285,0.178,0.58,0.519,0.846,0.879c0,0.098,0.055,0.141,0.034,0.281
		c0.003,0.125,0.01,0.252-0.036,0.4c-0.014,0.145-0.065,0.283-0.121,0.43c-0.037,0.148-0.101,0.287-0.174,0.427
		c-0.06,0.146-0.132,0.284-0.222,0.414c-0.089,0.128-0.146,0.293-0.253,0.413c-0.101,0.123-0.181,0.297-0.315,0.396
		c-0.129,0.105-0.263,0.223-0.412,0.317l-0.027,0.011c-0.577,0.338-0.608,0.938-0.637,1.375c-0.008,0.471,0.098,0.97,0.396,1.332
		c0.598,0.72,1.492,1.102,2.339,1.193c0.127,0.012,0.166,0.031,0.367,0.031l0.268-0.002L58,17.962
		c0.39-0.033,0.833-0.127,1.246-0.202l1.133-0.425c0.349-0.188,0.68-0.4,1.019-0.603c0.356-0.188,0.606-0.476,0.914-0.71
		c0.289-0.25,0.604-0.482,0.842-0.77c0.496-0.559,1.052-1.084,1.466-1.691c0.427-0.598,0.924-1.164,1.29-1.793l1.156-1.861
		c0.029-0.047,0.053-0.101,0.069-0.154l0.003-0.012c0.003-0.01,0.008-0.021,0.011-0.031c0.02,0.119,0.039,0.237,0.044,0.396
		c0.009,0.336,0.157,1.012,0.304,1.381c0.083,0.234,0.201,0.449,0.305,0.674c-0.324,0.238-0.637,0.495-0.93,0.779
		c-0.607,0.605-1.15,1.367-1.31,2.294c-0.17,0.915,0.208,1.938,0.851,2.558c0.368,0.406,0.965,0.482,1.468,0.502
		c0.529,0.014,1.059-0.104,1.443-0.395c0.764-0.582,1.365-1.284,1.733-2.26c0.075-0.261,0.166-0.512,0.146-0.854
		c0-0.155,0.002-0.317-0.101-0.57c-0.042-0.112-0.095-0.222-0.151-0.322c-0.055-0.094-0.072-0.093-0.109-0.145l-0.099-0.116
		l-0.198-0.196l-0.186-0.177c-0.13-0.106-0.237-0.25-0.35-0.387c-0.197-0.246-0.37-0.52-0.529-0.802
		c0.64-0.339,1.339-0.659,1.984-0.882l1.174-0.344c0.393-0.124,0.784-0.232,1.163-0.244l1.141-0.127
		c0.379-0.055,0.771,0.037,1.154,0.046c0.785-0.014,1.506,0.271,2.242,0.464c0.362,0.113,0.677,0.342,1.013,0.512l0.496,0.271
		c0.156,0.104,0.284,0.248,0.427,0.369l0.833,0.756l0.65,0.922c0.244,0.286,0.398,0.632,0.535,0.986l0.448,1.037l0.057,0.132
		c0.004,0.011,0.009,0.021,0.015,0.032c0.178,0.361,0.616,0.508,0.978,0.328C84.155,16.151,84.303,15.713,84.124,15.353z
		 M20.265,6.585c0.374-0.622,0.77-1.236,1.221-1.775c0.221-0.266,0.475-0.521,0.703-0.658c0.035-0.018,0.147-0.07,0.086-0.049
		c-0.008,0.003-0.048-0.044-0.014-0.038l0.127,0.056c-0.107-0.062-0.015,0.038-0.113,0.093c-0.055,0.079-0.138,0.104-0.178,0.174
		c-0.004,0.418-0.183,1.169-0.428,1.788c-0.246,0.648-0.552,1.293-0.885,1.924c-0.667,1.262-1.453,2.473-2.314,3.609
		c-0.307,0.402-0.638,0.778-0.967,1.157c0.254-0.788,0.535-1.571,0.85-2.343C18.911,9.175,19.519,7.835,20.265,6.585z
		 M16.885,17.577c-0.005,0-0.015,0.003-0.021,0.004C16.798,17.589,16.834,17.583,16.885,17.577z M24.441,16.874
		c-0.016-0.01-0.007-0.082-0.014-0.129l0.038-0.066c0-0.012,0.005-0.023,0.005-0.038c0.003,0.012,0.006,0.021,0.009,0.034
		C24.498,16.94,24.441,16.881,24.441,16.874z M37.919,12.382c-0.188-0.031-0.368-0.113-0.472-0.246
		c-0.02-0.007-0.028-0.025-0.042-0.041c0.097-0.1,0.214-0.182,0.398-0.201c0.214-0.021,0.493,0.025,0.62,0.154
		C38.58,12.134,38.454,12.468,37.919,12.382z M39.924,14.968c0.04-0.039,0.103-0.064,0.185-0.076
		C40.001,14.956,39.933,15.003,39.924,14.968z M55.313,2.523C55.247,2.406,55.327,2.417,55.313,2.523L55.313,2.523z M53.574,4.696
		c0.18-0.619,0.438-1.146,0.753-1.526c0.157-0.208,0.344-0.296,0.543-0.4c0.099-0.017,0.227-0.065,0.305-0.065
		C55.212,2.7,55.25,2.69,55.316,2.698c-0.004,0.085-0.014,0.177-0.026,0.269c-0.043,0.326-0.127,0.683-0.229,1.024
		c-0.207,0.693-0.514,1.364-0.858,2.011c-0.509,0.937-1.066,1.848-1.651,2.743c0.009-0.043,0.018-0.088,0.025-0.131
		C52.869,7.243,53.191,5.896,53.574,4.696z M50.259,17.228l0.013-0.009C50.236,17.257,50.214,17.28,50.259,17.228z M69.761,14.825
		c-0.024-0.003-0.043-0.017-0.053-0.033c-0.013-0.062-0.004-0.022-0.009,0.027c0.022,0.064-0.026,0.217-0.06,0.341
		c-0.189,0.562-0.663,1.171-1.188,1.572c-0.261,0.198-0.461,0.501-0.737,0.653c-0.279,0.18-0.59,0.104-0.781-0.117
		c-0.512-0.531-0.73-1.205-0.616-1.908c0.125-0.691,0.567-1.33,1.111-1.857c0.231-0.221,0.485-0.419,0.746-0.612
		c0.196,0.33,0.405,0.653,0.654,0.957c0.15,0.177,0.292,0.356,0.476,0.511l0.263,0.239l0.033,0.029l0.088,0.103
		C69.708,14.76,69.779,14.825,69.761,14.825z"/>
	<path fill="#FFFFFF" d="M91.852,4.072c-0.746-0.313-1.604,0.038-1.917,0.783L85.67,15.019c-0.14,0.332-0.016,0.727,0.305,0.915
		c0.35,0.204,0.798,0.087,1.002-0.262l5.571-9.509c0.031-0.054,0.063-0.115,0.087-0.174C92.949,5.243,92.598,4.385,91.852,4.072z"/>
	<circle fill="#FFFFFF" cx="85.095" cy="18.306" r="1.23"/>
</g>
</svg>
