<?xml version="1.0" encoding="utf-8"?>
<!-- Generator: Adobe Illustrator 16.0.0, SVG Export Plug-In . SVG Version: 6.00 Build 0)  -->
<!DOCTYPE svg PUBLIC "-//W3C//DTD SVG 1.1//EN" "http://www.w3.org/Graphics/SVG/1.1/DTD/svg11.dtd">
<svg version="1.1" id="Layer_1" xmlns="http://www.w3.org/2000/svg" xmlns:xlink="http://www.w3.org/1999/xlink" x="0px" y="0px"
	 width="70px" height="70px" viewBox="0 0 70 70" enable-background="new 0 0 70 70" xml:space="preserve">
<g>
	<defs>
		<rect id="SVGID_1_" width="70" height="70"/>
	</defs>
	<clipPath id="SVGID_2_">
		<use xlink:href="#SVGID_1_"  overflow="visible"/>
	</clipPath>
	<path clip-path="url(#SVGID_2_)" fill="#FFFFFF" d="M31.151,38.477c0,0.481-0.082,0.878-0.245,1.188
		c-0.164,0.312-0.384,0.556-0.659,0.737c-0.276,0.181-0.595,0.31-0.956,0.388c-0.362,0.077-0.741,0.116-1.138,0.116h-4.341V35.84
		h4.419c0.879,0,1.585,0.202,2.119,0.607S31.151,37.528,31.151,38.477 M30.402,30.878c0,0.775-0.233,1.335-0.698,1.681
		c-0.465,0.345-1.06,0.517-1.783,0.517h-4.109v-4.316h3.799c0.362,0,0.71,0.03,1.046,0.091s0.634,0.168,0.892,0.322
		c0.258,0.155,0.465,0.371,0.62,0.646C30.324,30.094,30.402,30.447,30.402,30.878 M34.666,41.125
		c0.362-0.681,0.543-1.485,0.543-2.417c0-1.153-0.281-2.14-0.84-2.959c-0.56-0.817-1.409-1.391-2.546-1.718
		c0.827-0.396,1.451-0.905,1.874-1.525c0.422-0.62,0.633-1.396,0.633-2.325c0-0.861-0.142-1.586-0.426-2.172
		c-0.285-0.585-0.685-1.055-1.202-1.407c-0.517-0.354-1.137-0.608-1.861-0.764c-0.724-0.154-1.525-0.231-2.403-0.231h-8.684v18.452
		h8.942c0.827,0,1.632-0.104,2.416-0.311c0.784-0.207,1.482-0.525,2.094-0.956C33.817,42.361,34.304,41.806,34.666,41.125
		 M39.431,28.759h7.617v-1.841h-7.617V28.759z M46.554,35.943h-5.97c0.017-0.258,0.072-0.551,0.168-0.878
		c0.094-0.328,0.258-0.639,0.49-0.932s0.544-0.537,0.931-0.735c0.388-0.198,0.874-0.298,1.46-0.298c0.896,0,1.563,0.241,2.003,0.724
		C46.076,34.308,46.381,35.014,46.554,35.943 M49.965,35.297c-0.241-0.946-0.633-1.792-1.176-2.532s-1.236-1.33-2.08-1.771
		c-0.846-0.438-1.835-0.659-2.973-0.659c-1.017,0-1.942,0.182-2.777,0.543c-0.836,0.362-1.555,0.857-2.158,1.486
		c-0.604,0.629-1.069,1.374-1.396,2.235c-0.327,0.861-0.491,1.792-0.491,2.791c0,1.033,0.159,1.981,0.478,2.843
		s0.771,1.602,1.357,2.223c0.585,0.62,1.301,1.099,2.145,1.435s1.792,0.504,2.843,0.504c1.517,0,2.809-0.346,3.876-1.034
		c1.068-0.689,1.861-1.835,2.378-3.438h-3.23c-0.12,0.413-0.448,0.807-0.982,1.177c-0.533,0.37-1.171,0.555-1.912,0.555
		c-1.033,0-1.825-0.266-2.378-0.801c-0.551-0.533-0.852-1.396-0.903-2.584h9.639C50.292,37.235,50.206,36.245,49.965,35.297"/>
</g>
</svg>
