<?xml version="1.0" encoding="utf-8"?>
<!-- Generator: Adobe Illustrator 16.0.0, SVG Export Plug-In . SVG Version: 6.00 Build 0)  -->
<!DOCTYPE svg PUBLIC "-//W3C//DTD SVG 1.1//EN" "http://www.w3.org/Graphics/SVG/1.1/DTD/svg11.dtd">
<svg version="1.1" id="Layer_1" xmlns="http://www.w3.org/2000/svg" xmlns:xlink="http://www.w3.org/1999/xlink" x="0px" y="0px"
	 width="23.001px" height="46px" viewBox="0 0 23.001 46" enable-background="new 0 0 23.001 46" xml:space="preserve">
<path fill="#C9CFAA" d="M12,20.338l10.001-3.359v1.252L12,21.59V20.338z M1,18.229v-1.25l10,3.636v1.225L1,18.229z M11,0
	l-0.002,0.03L11,0.002V0.06L0,4.393v11.533v0.055v2.96l11,3.958V23l12.001-4.061v-2.646l-0.091-0.371l-0.538-0.166l-10.958,3.837
	L0.573,15.812l-0.377-0.037L11,11.601v-0.04l12.001,4.318V4.39L11,0.061V0z"/>
<path fill="#FFFFFF" d="M12,43.338l10.001-3.359v1.252L12,44.59V43.338z M1,41.229v-1.25l10,3.635v1.225L1,41.229z M11,23
	l-0.002,0.03L11,23.001v0.058L0,27.392v11.534v0.055v2.959l11,3.959V46l12.001-4.061v-2.646l-0.091-0.371l-0.538-0.166
	l-10.958,3.836L0.573,38.811l-0.377-0.037L11,34.6v-0.039l12.001,4.318v-11.49L11,23.06V23z"/>
</svg>
