<?xml version="1.0" encoding="utf-8"?>
<!-- Generator: Adobe Illustrator 16.0.0, SVG Export Plug-In . SVG Version: 6.00 Build 0)  -->
<!DOCTYPE svg PUBLIC "-//W3C//DTD SVG 1.1//EN" "http://www.w3.org/Graphics/SVG/1.1/DTD/svg11.dtd">
<svg version="1.1" id="Layer_1" xmlns="http://www.w3.org/2000/svg" xmlns:xlink="http://www.w3.org/1999/xlink" x="0px" y="0px"
	 width="70px" height="70px" viewBox="0 0 70 70" enable-background="new 0 0 70 70" xml:space="preserve">
<g>
	<defs>
		<rect id="SVGID_3_" width="70" height="70"/>
	</defs>
	<clipPath id="SVGID_2_">
		<use xlink:href="#SVGID_3_"  overflow="visible"/>
	</clipPath>
	<path clip-path="url(#SVGID_2_)" fill="#FFFFFF" d="M42.019,30.252c0.429,0,0.857,0.006,1.285-0.001
		c0.72-0.012,1.158-0.392,1.185-1.101c0.031-0.856,0.031-1.716,0.001-2.573c-0.024-0.711-0.462-1.106-1.173-1.116
		c-0.874-0.01-1.749-0.013-2.621,0.001c-0.657,0.012-1.099,0.396-1.125,1.049c-0.04,0.893-0.04,1.789-0.003,2.68
		c0.029,0.68,0.472,1.048,1.167,1.06C41.163,30.258,41.591,30.252,42.019,30.252 M39.922,34.964
		c0.005-2.629-2.155-4.758-4.847-4.775c-2.714-0.019-4.932,2.101-4.955,4.736c-0.023,2.603,2.219,4.783,4.917,4.78
		C37.729,39.701,39.916,37.576,39.922,34.964 M27.567,33.145c-0.542,0-1.022,0.023-1.5-0.008c-0.455-0.029-0.616,0.105-0.612,0.597
		c0.023,3.172,0.011,6.345,0.015,9.517c0,0.86,0.337,1.192,1.21,1.192c5.525,0.001,11.051,0.001,16.577,0
		c0.92,0,1.248-0.333,1.248-1.273c0.003-2.526,0.002-5.055,0.003-7.581c0-0.663,0.015-1.328-0.012-1.989
		c-0.006-0.152-0.151-0.417-0.246-0.424c-0.578-0.039-1.161-0.021-1.761-0.021c1.398,5.255-2.886,9.472-7.349,9.531
		C30.561,42.746,26.164,38.502,27.567,33.145 M47.361,35.011c0,2.989,0,5.983-0.001,8.975c0,2.004-1.359,3.377-3.365,3.378
		c-5.987,0.006-11.975,0.006-17.963,0.001c-2.023-0.001-3.392-1.388-3.392-3.419c0-5.965,0.001-11.932,0.004-17.896
		c0-2.028,1.369-3.41,3.4-3.412c5.97-0.006,11.94-0.005,17.91,0c2.068,0.002,3.402,1.365,3.402,3.45c0.001,2.976,0,5.949,0,8.924
		H47.361z"/>
</g>
</svg>
