<?xml version="1.0" encoding="utf-8"?>
<!-- Generator: Adobe Illustrator 16.0.0, SVG Export Plug-In . SVG Version: 6.00 Build 0)  -->
<!DOCTYPE svg PUBLIC "-//W3C//DTD SVG 1.1//EN" "http://www.w3.org/Graphics/SVG/1.1/DTD/svg11.dtd">
<svg version="1.1" id="Layer_1" xmlns="http://www.w3.org/2000/svg" xmlns:xlink="http://www.w3.org/1999/xlink" x="0px" y="0px"
	 width="69.999px" height="70px" viewBox="0 0 69.999 70" enable-background="new 0 0 69.999 70" xml:space="preserve">
<g>
	<defs>
		<rect id="SVGID_5_" width="69.999" height="70"/>
	</defs>
	<clipPath id="SVGID_2_">
		<use xlink:href="#SVGID_5_"  overflow="visible"/>
	</clipPath>
	<path clip-path="url(#SVGID_2_)" fill="#FFFFFF" d="M34.806,31.829c-0.029,0.032-0.044,0.055-0.064,0.069
		c-1.135,0.825-2.193,1.759-3.396,2.491c-0.364,0.222-0.733,0.436-1.105,0.646c-0.217,0.123-0.448,0.215-0.689,0.283
		c-0.747,0.216-1.227,0.868-1.217,1.646c0.009,0.735,0.512,1.386,1.224,1.583c0.736,0.204,1.51-0.106,1.903-0.765
		c0.095-0.158,0.18-0.321,0.277-0.478c0.207-0.331,0.457-0.622,0.779-0.852c0.325-0.233,0.614-0.516,0.957-0.725
		c0.297-0.182,0.412-0.149,0.603,0.17c0.301-0.613,0.595-1.213,0.889-1.812c0.019,0.167-0.041,0.312-0.083,0.46
		c-0.4,1.407-0.766,2.823-1.221,4.213c-0.033,0.1-0.073,0.197-0.107,0.296c-0.093,0.272-0.234,0.478-0.504,0.638
		c-0.78,0.466-1.077,1.448-0.74,2.291c0.338,0.845,1.222,1.334,2.116,1.174c0.894-0.161,1.549-0.934,1.566-1.843
		c0.006-0.336-0.058-0.656-0.235-0.941c-0.1-0.16-0.115-0.316-0.082-0.487c0.142-0.742,0.333-1.472,0.581-2.185
		c0.163-0.472,0.43-0.885,0.781-1.24c0.106-0.108,0.223-0.203,0.353-0.281c0.377-0.227,0.617-0.187,0.888,0.155
		c0.355,0.448,0.546,0.944,0.497,1.531c-0.067,0.797,0.418,1.501,1.167,1.74c0.729,0.234,1.534-0.058,1.945-0.705
		c0.422-0.662,0.338-1.505-0.217-2.086c-0.65-0.679-1.298-1.357-1.844-2.126c-0.853-1.201-0.92-2.447-0.188-3.729
		c0.458-0.804,0.921-1.605,1.387-2.405c0.324-0.557,0.736-1.038,1.272-1.404c0.341-0.231,0.708-0.399,1.13-0.416
		c0.222-0.009,0.429,0.041,0.623,0.15c0.514,0.291,1.043,0.558,1.539,0.876c0.775,0.497,1.218,1.225,1.223,2.149
		c0.016,3.388,0.015,6.776,0,10.165c-0.004,0.972-0.453,1.742-1.296,2.224c-3.022,1.722-6.057,3.419-9.083,5.133
		c-0.479,0.271-0.981,0.399-1.525,0.381c-0.433-0.014-0.841-0.114-1.222-0.33c-3.064-1.726-6.134-3.441-9.193-5.178
		c-0.851-0.483-1.306-1.256-1.31-2.236c-0.014-3.375-0.015-6.75,0-10.126c0.004-0.972,0.454-1.742,1.297-2.223
		c3.064-1.741,6.136-3.467,9.214-5.183c0.863-0.481,1.76-0.46,2.638-0.003c0.36,0.188,0.699,0.419,1.066,0.594
		c0.665,0.316,0.844,0.873,0.811,1.544c-0.025,0.514-0.18,0.994-0.43,1.44c-0.451,0.808-0.878,1.633-1.381,2.406
		c-0.808,1.243-1.959,2.002-3.44,2.237c-0.901,0.142-1.794,0.035-2.688-0.062c-0.288-0.03-0.575-0.063-0.861,0.014
		c-0.601,0.161-1.05,0.674-1.108,1.27c-0.065,0.654,0.256,1.246,0.827,1.527c0.556,0.272,1.25,0.193,1.68-0.253
		c0.239-0.248,0.515-0.35,0.828-0.4c0.453-0.074,0.907-0.152,1.368-0.146c0.086,0.001,0.152-0.037,0.221-0.074
		c0.456-0.245,0.912-0.492,1.369-0.736C34.652,31.867,34.701,31.816,34.806,31.829"/>
</g>
</svg>
