<?xml version="1.0" encoding="utf-8"?>
<!-- Generator: Adobe Illustrator 16.0.0, SVG Export Plug-In . SVG Version: 6.00 Build 0)  -->
<!DOCTYPE svg PUBLIC "-//W3C//DTD SVG 1.1//EN" "http://www.w3.org/Graphics/SVG/1.1/DTD/svg11.dtd">
<svg version="1.1" id="Layer_1" xmlns="http://www.w3.org/2000/svg" xmlns:xlink="http://www.w3.org/1999/xlink" x="0px" y="0px"
	 width="70px" height="70px" viewBox="0 0 70 70" enable-background="new 0 0 70 70" xml:space="preserve">
<g>
	<defs>
		<rect id="SVGID_7_" width="70" height="70"/>
	</defs>
	<clipPath id="SVGID_2_">
		<use xlink:href="#SVGID_7_"  overflow="visible"/>
	</clipPath>
	<path clip-path="url(#SVGID_2_)" fill="#FFFFFF" d="M28.215,30.867h-5.048V47.21h5.048V30.867z M28.686,25.751
		c0-1.635-1.326-2.961-2.961-2.961c-1.636,0-2.962,1.326-2.962,2.961c0,1.636,1.326,2.962,2.962,2.962
		C27.36,28.713,28.686,27.387,28.686,25.751 M47.237,47.21v-8.434c0-4.411-0.671-8.313-5.708-8.313
		c-4.187,0-5.237,2.727-5.237,2.727v-2.322h-4.846V47.21h4.846h0.202v-8.434c0-2.747,1.117-3.837,3.097-3.837
		c0.907,0,1.527,0.292,1.938,0.854c0.464,0.637,0.66,1.621,0.66,2.982v8.434H47.237z"/>
</g>
</svg>
