<?xml version="1.0" encoding="utf-8"?>
<!-- Generator: Adobe Illustrator 16.0.0, SVG Export Plug-In . SVG Version: 6.00 Build 0)  -->
<!DOCTYPE svg PUBLIC "-//W3C//DTD SVG 1.1//EN" "http://www.w3.org/Graphics/SVG/1.1/DTD/svg11.dtd">
<svg version="1.1" id="Layer_1" xmlns="http://www.w3.org/2000/svg" xmlns:xlink="http://www.w3.org/1999/xlink" x="0px" y="0px"
	 width="40px" height="20px" viewBox="0 0 40 20" enable-background="new 0 0 40 20" xml:space="preserve">
<g>
	<defs>
		<rect id="SVGID_1_" y="0.737" width="40" height="18.525"/>
	</defs>
	<clipPath id="SVGID_2_">
		<use xlink:href="#SVGID_1_"  overflow="visible"/>
	</clipPath>
	<path clip-path="url(#SVGID_2_)" fill="#FFFFFF" d="M8.663,5.421H7.002L6.69,6.271l-4.737,4.561h0.01l-0.269,0.892v-0.642v-0.25
		v-5.41H0v8.852h1.64l0.323-0.891L6.73,8.758l0.237-0.785v0.556v0.334v5.41h1.696V5.421z M10.68,1.908
		c0-0.646-0.524-1.171-1.17-1.171c-0.647,0-1.171,0.524-1.171,1.171c0,0.647,0.524,1.171,1.171,1.171
		C10.156,3.079,10.68,2.556,10.68,1.908 M17.324,14.272h1.696V5.421h-1.661l-0.312,0.85l-4.737,4.561h0.01l-0.269,0.892v-0.642
		v-0.25v-5.41h-1.694v8.852h1.64l0.323-0.891l4.767-4.624l0.237-0.785v0.556v0.334V14.272z M27.681,19.262h1.696V5.421h-1.661
		l-0.312,0.85l-4.736,4.561h0.009l-0.269,0.892v-0.642v-0.25v-5.41h-1.694v8.852h1.64l0.323-0.891l4.767-4.624l0.237-0.785v0.556
		v0.334V19.262z M38.157,9.807c0,1.596-1.297,2.894-2.898,2.894c-1.597,0-2.893-1.298-2.893-2.894c0-1.599,1.296-2.898,2.893-2.898
		C36.86,6.908,38.157,8.208,38.157,9.807 M40,9.807c0-2.615-2.126-4.74-4.741-4.74c-2.615,0-4.741,2.125-4.741,4.74
		c0,2.614,2.126,4.739,4.741,4.739C37.874,14.546,40,12.421,40,9.807"/>
</g>
</svg>
