<?xml version="1.0" encoding="utf-8"?>
<!-- Generator: Adobe Illustrator 16.0.0, SVG Export Plug-In . SVG Version: 6.00 Build 0)  -->
<!DOCTYPE svg PUBLIC "-//W3C//DTD SVG 1.1//EN" "http://www.w3.org/Graphics/SVG/1.1/DTD/svg11.dtd">
<svg version="1.1" id="Layer_1" xmlns="http://www.w3.org/2000/svg" xmlns:xlink="http://www.w3.org/1999/xlink" x="0px" y="0px"
	 width="538.646px" height="100.152px" viewBox="0 0 538.646 100.152" enable-background="new 0 0 538.646 100.152"
	 xml:space="preserve">
<g>
	<path fill-rule="evenodd" clip-rule="evenodd" d="M421.083,50.283c0-15.391,0-30.781,0-46.173c0-2.267,0.184-2.453,2.422-2.454
		c4.669-0.002,9.339-0.003,14.009,0c2.066,0.001,2.293,0.216,2.294,2.299c0.007,10.483,0.003,20.966,0.003,31.449
		c0,20.251,0,40.502,0,60.754c0,2.646-0.101,2.745-2.714,2.745c-4.623,0-9.244,0.005-13.867-0.002
		c-1.865-0.003-2.144-0.282-2.145-2.16C421.082,81.256,421.083,65.769,421.083,50.283z"/>
	<path fill-rule="evenodd" clip-rule="evenodd" d="M153.276,60.866c-1.778,0-3.448-0.073-5.103,0.051
		c-0.413,0.031-0.883,0.636-1.131,1.085c-0.183,0.332-0.051,0.838-0.051,1.267c-0.001,11.008,0,22.017-0.002,33.025
		c0,2.463-0.149,2.609-2.563,2.61c-4.67,0.001-9.341,0.005-14.011-0.002c-1.872-0.003-2.151-0.28-2.151-2.154
		c-0.003-30.976-0.003-61.951,0-92.926c0-1.885,0.274-2.163,2.137-2.164c7.577-0.004,15.154-0.018,22.731,0.007
		c4.944,0.016,9.783,0.717,14.333,2.744c7.19,3.203,11.143,9.042,12.767,16.496c1.548,7.107,1.582,14.286-0.254,21.369
		c-1.361,5.25-4.063,9.738-8.408,13.08c-0.96,0.738-1.011,1.354-0.676,2.384c4.184,12.832,8.332,25.674,12.486,38.516
		c0.857,2.649,0.852,2.651-1.955,2.651c-4.861,0-9.721,0.003-14.583-0.001c-1.907-0.001-2.262-0.255-2.822-2.125
		c-3.437-11.472-6.863-22.947-10.293-34.42C153.592,61.904,153.454,61.452,153.276,60.866z M146.991,31.394
		c0,3.908,0.023,7.816-0.015,11.725c-0.011,1.146,0.408,1.658,1.58,1.603c1.903-0.088,3.816-0.025,5.712-0.188
		c3.935-0.337,6.523-2.512,7.443-6.371c1.066-4.468,0.972-8.985-0.011-13.458c-0.543-2.472-1.865-4.449-4.274-5.547
		c-2.797-1.276-5.774-0.955-8.712-1.066c-1.291-0.049-1.767,0.41-1.746,1.721C147.03,23.671,146.991,27.533,146.991,31.394z"/>
	<path fill-rule="evenodd" clip-rule="evenodd" d="M366.157,50.297c0-15.39,0-30.78,0-46.17c0-2.286,0.179-2.469,2.405-2.47
		c4.622-0.002,9.244-0.001,13.865,0c2.263,0,2.455,0.181,2.456,2.426c0.003,13.865,0.002,27.731,0.002,41.597
		c0,11.34,0,22.68,0,34.02c0,2.329,0.003,2.33,2.258,2.33c7.481,0,14.961-0.002,22.442,0.001c1.901,0.001,2.173,0.25,2.18,2.125
		c0.015,4.241,0.019,8.481-0.003,12.722c-0.008,1.734-0.309,2.023-1.995,2.024c-13.865,0.005-27.73,0.006-41.596,0
		c-1.725-0.001-2.013-0.317-2.013-2.147C366.156,81.268,366.157,65.783,366.157,50.297z"/>
	<path fill-rule="evenodd" clip-rule="evenodd" d="M116.457,50.375c0,7.766,0.056,15.533-0.019,23.298
		c-0.053,5.52-1.423,10.72-4.247,15.507c-3.156,5.352-7.881,8.59-13.84,9.953c-6.612,1.512-13.22,1.426-19.698-0.836
		c-5.698-1.99-9.701-5.861-12.278-11.251c-2.128-4.452-3.086-9.176-3.115-14.098c-0.076-12.723-0.229-25.445-0.188-38.167
		c0.015-4.562,0.113-9.187,0.855-13.669c1.057-6.383,3.798-12.044,9.206-16.06c3.664-2.72,7.877-4.042,12.318-4.465
		c5.281-0.504,10.542-0.3,15.636,1.556c5.723,2.085,9.759,5.943,12.331,11.395c2.084,4.418,3.045,9.096,3.055,13.969
		c0.015,7.624,0.004,15.247,0.004,22.87C116.47,50.375,116.463,50.375,116.457,50.375z M97.549,50.211c-0.008,0-0.015,0-0.023,0
		c0-7.577,0.043-15.154-0.033-22.729c-0.018-1.74-0.265-3.526-0.728-5.202c-0.838-3.035-3.107-4.784-6.06-5.01
		c-3.548-0.271-6.117,0.885-7.284,4.007c-0.826,2.211-1.148,4.716-1.187,7.098c-0.165,10.195-0.192,20.394-0.167,30.59
		c0.014,5.619,0.124,11.244,0.391,16.856c0.206,4.343,3.034,7.218,6.854,7.379c4.365,0.185,7.189-2.163,7.911-6.703
		c0.238-1.498,0.305-3.037,0.312-4.558C97.567,64.697,97.549,57.454,97.549,50.211z"/>
	<path fill-rule="evenodd" clip-rule="evenodd" d="M354.741,50.375c0,7.766,0.055,15.533-0.019,23.298
		c-0.053,5.52-1.423,10.72-4.247,15.507c-3.156,5.352-7.881,8.59-13.84,9.953c-6.611,1.512-13.22,1.426-19.698-0.836
		c-5.697-1.99-9.7-5.861-12.278-11.251c-2.129-4.452-3.086-9.176-3.116-14.098c-0.076-12.723-0.229-25.445-0.188-38.167
		c0.015-4.562,0.114-9.187,0.855-13.669c1.057-6.383,3.799-12.044,9.207-16.06c3.663-2.72,7.877-4.042,12.318-4.465
		c5.281-0.504,10.542-0.3,15.636,1.556c5.723,2.085,9.759,5.943,12.331,11.395c2.084,4.418,3.045,9.096,3.055,13.969
		c0.015,7.624,0.004,15.247,0.004,22.87C354.754,50.375,354.748,50.375,354.741,50.375z M335.834,50.211c-0.008,0-0.016,0-0.023,0
		c0-7.577,0.043-15.154-0.033-22.729c-0.018-1.74-0.265-3.526-0.728-5.202c-0.837-3.035-3.107-4.784-6.06-5.01
		c-3.549-0.271-6.117,0.885-7.284,4.007c-0.826,2.211-1.148,4.716-1.187,7.098c-0.165,10.195-0.191,20.394-0.167,30.59
		c0.014,5.619,0.124,11.244,0.391,16.856c0.206,4.343,3.034,7.218,6.854,7.379c4.365,0.185,7.189-2.163,7.911-6.703
		c0.238-1.498,0.306-3.037,0.312-4.558C335.851,64.697,335.834,57.454,335.834,50.211z"/>
	<path fill-rule="evenodd" clip-rule="evenodd" d="M502.977,50.375c0,7.766,0.055,15.533-0.019,23.298
		c-0.053,5.52-1.423,10.72-4.246,15.507c-3.157,5.352-7.882,8.59-13.84,9.953c-6.611,1.512-13.22,1.426-19.698-0.836
		c-5.697-1.99-9.7-5.861-12.278-11.251c-2.128-4.452-3.086-9.176-3.116-14.098c-0.075-12.723-0.229-25.445-0.188-38.167
		c0.015-4.562,0.114-9.187,0.855-13.669c1.057-6.383,3.799-12.044,9.207-16.06c3.664-2.72,7.877-4.042,12.318-4.465
		c5.281-0.504,10.542-0.3,15.636,1.556c5.723,2.085,9.759,5.943,12.331,11.395c2.084,4.418,3.045,9.096,3.054,13.969
		c0.015,7.624,0.004,15.247,0.004,22.87C502.99,50.375,502.983,50.375,502.977,50.375z M484.069,50.211c-0.008,0-0.015,0-0.023,0
		c0-7.577,0.043-15.154-0.033-22.729c-0.018-1.74-0.265-3.526-0.727-5.202c-0.838-3.035-3.107-4.784-6.06-5.01
		c-3.549-0.271-6.117,0.885-7.284,4.007c-0.826,2.211-1.148,4.716-1.187,7.098c-0.165,10.195-0.191,20.394-0.167,30.59
		c0.014,5.619,0.124,11.244,0.391,16.856c0.206,4.343,3.034,7.218,6.854,7.379c4.365,0.185,7.189-2.163,7.911-6.703
		c0.238-1.498,0.306-3.037,0.312-4.558C484.086,64.697,484.069,57.454,484.069,50.211z"/>
	<path fill-rule="evenodd" clip-rule="evenodd" d="M0,50.24C0,34.844,0,19.449,0.001,4.054c0-2.185,0.204-2.395,2.337-2.396
		c7.245-0.002,14.489,0.006,21.734-0.003c4.312-0.006,8.561,0.467,12.666,1.815c7.305,2.399,11.905,7.539,14.158,14.727
		c2.714,8.655,2.781,17.476,0.536,26.227c-2.653,10.34-9.643,16.129-20.018,17.79c-3.55,0.569-7.208,0.482-10.819,0.641
		c-1.744,0.077-1.862,0.116-1.863,1.874C18.726,75.214,18.73,85.7,18.728,96.186c0,2.619-0.105,2.719-2.741,2.719
		c-4.385,0-8.771,0-13.155,0C0.058,98.905,0,98.849,0,96.14C0,80.839,0,65.54,0,50.24z M18.729,32.267
		c0,4.194,0.024,8.388-0.016,12.582c-0.011,1.166,0.429,1.649,1.594,1.591c1.665-0.083,3.334-0.07,4.999-0.152
		c4.385-0.218,7.238-2.532,8.148-6.801c1.014-4.758,0.979-9.552,0.041-14.33c-0.728-3.704-2.892-6.087-6.662-6.67
		c-2.102-0.324-4.265-0.233-6.396-0.388c-1.309-0.096-1.748,0.436-1.73,1.729C18.765,23.974,18.729,28.121,18.729,32.267z"/>
	<path fill-rule="evenodd" clip-rule="evenodd" d="M223.089,58.541c0,12.679,0.001,25.358-0.001,38.038
		c0,2.088-0.228,2.322-2.266,2.323c-4.767,0.004-9.533,0.006-14.3,0c-1.862-0.002-2.124-0.27-2.171-2.154
		c-0.011-0.429-0.002-0.858-0.002-1.287c0-24.882,0-49.764-0.001-74.646c0-2.285-0.003-2.285-2.293-2.285
		c-4.386,0-8.771,0.005-13.156-0.003c-1.822-0.003-2.126-0.288-2.131-2.03c-0.011-4.29-0.011-8.58,0-12.87
		c0.005-1.657,0.33-1.969,2.043-1.969c16.635-0.005,33.271-0.005,49.906,0c1.619,0.001,1.938,0.296,1.946,1.925
		c0.023,4.337,0.023,8.675-0.001,13.013c-0.009,1.624-0.335,1.926-1.944,1.93c-4.337,0.012-8.675,0.004-13.013,0.005
		c-2.617,0-2.617,0-2.617,2.688C223.089,33.659,223.089,46.1,223.089,58.541z"/>
	<path fill-rule="evenodd" clip-rule="evenodd" d="M249.234,50.239c0-15.396,0-30.792,0-46.188c0-2.184,0.204-2.393,2.34-2.394
		c13.585-0.002,27.169-0.002,40.754,0c1.974,0,2.225,0.24,2.23,2.22c0.012,4.195,0.016,8.39-0.003,12.584
		c-0.009,1.794-0.302,2.066-2.098,2.067c-7.531,0.006-15.062,0.001-22.594,0.003c-1.773,0-1.896,0.104-1.897,1.826
		c-0.009,6.673-0.008,13.346-0.001,20.02c0.002,1.807,0.104,1.893,1.978,1.894c6.387,0.001,12.774-0.002,19.161,0.002
		c1.897,0.001,2.17,0.267,2.173,2.125c0.007,4.242,0.006,8.484,0,12.727c-0.002,1.864-0.266,2.159-2.151,2.164
		c-6.339,0.018-12.679,0.006-19.019,0.009c-2.129,0-2.144,0.016-2.145,2.139c-0.001,11.63,0.001,23.261-0.002,34.891
		c0,2.436-0.15,2.578-2.596,2.578c-4.433,0.001-8.866,0.001-13.298,0c-2.774,0-2.832-0.056-2.833-2.765
		C249.234,80.839,249.234,65.539,249.234,50.239z"/>
	<g>
		<path d="M538.331,73.077v4.108l-13.778,3.918c-0.601,0.168-1.467,0.379-2.599,0.632s-1.92,0.405-2.362,0.458
			c0.674,0.105,1.548,0.276,2.623,0.514c1.074,0.237,1.875,0.435,2.402,0.592l13.714,3.824v4.108l-11.566,2.987l-11.534,3.033
			v-3.855l13.462-3.302c2.159-0.516,4.066-0.885,5.719-1.106c-0.895-0.116-1.896-0.289-3.002-0.521s-2.001-0.442-2.686-0.632
			l-13.494-3.76v-3.745l13.557-3.855c1.254-0.368,3.129-0.758,5.625-1.169c-1.506-0.158-3.423-0.538-5.751-1.138l-13.43-3.287
			v-3.824L538.331,73.077z"/>
		<path d="M526.749,43.277c3.761,0,6.684,0.94,8.769,2.82c2.086,1.88,3.128,4.542,3.128,7.987c0,3.487-1.035,6.165-3.104,8.035
			s-5.011,2.805-8.825,2.805c-3.813,0-6.741-0.94-8.785-2.82c-2.043-1.88-3.065-4.563-3.065-8.051c0-3.434,1.038-6.088,3.113-7.963
			C520.055,44.215,522.978,43.277,526.749,43.277z M526.749,60.911c2.844,0,5.001-0.574,6.47-1.722
			c1.469-1.148,2.204-2.85,2.204-5.104c0-2.244-0.727-3.937-2.181-5.08c-1.453-1.143-3.618-1.714-6.494-1.714
			c-2.833,0-4.982,0.566-6.447,1.699c-1.464,1.132-2.196,2.82-2.196,5.063c0,2.265,0.732,3.974,2.196,5.127
			C521.767,60.334,523.916,60.911,526.749,60.911z"/>
		<path d="M529.103,34.54h9.228v3.776h-23.1v-6.525c0-2.981,0.558-5.188,1.675-6.62c1.117-1.433,2.802-2.149,5.056-2.149
			c2.876,0,4.924,1.496,6.146,4.487l10.223-6.525v4.297l-9.228,5.53V34.54z M525.975,34.54v-2.623c0-1.759-0.327-3.034-0.98-3.824
			c-0.653-0.79-1.622-1.185-2.907-1.185c-1.306,0-2.244,0.427-2.812,1.28c-0.569,0.854-0.854,2.138-0.854,3.855v2.497H525.975z"/>
		<path d="M538.331,0v4.377l-10.46,7.252l1.817,2.228h8.643v3.776h-23.1v-3.776h11.029c-1.264-1.032-2.48-2.059-3.65-3.081
			l-7.379-6.241V0.237c4.74,4.034,8.116,6.926,10.128,8.674L538.331,0z"/>
	</g>
</g>
</svg>
